# This file uses centimeters as units for non-parametric coordinates.

mtllib Floor_1.mtl
g default
v -690.600403 -84.639893 171.143890
v -690.600281 -84.639893 605.327637
v -690.600403 -77.011292 171.143890
v -690.600281 -77.011292 605.327637
v -190.600311 -77.011292 171.143890
v -190.600372 -77.011292 605.327637
v -190.600311 -84.639893 171.143890
v -190.600372 -84.639893 605.327637
v -261.013733 -78.701843 605.352661
v 690.600403 -78.701843 605.352661
v -261.013733 84.639908 605.352661
v 690.600403 84.639908 605.352661
v -261.013733 84.639908 194.647644
v 690.600403 84.639908 194.647644
v -261.013733 -78.701843 194.647644
v 690.600403 -78.701843 194.647644
v -261.013733 76.472809 194.647644
v 690.600403 76.472809 194.647644
v 690.600403 76.472809 605.352661
v -261.013733 76.472809 605.352661
v -549.941223 -78.701881 -105.352570
v 690.600403 -78.701881 -105.352570
v -549.941223 84.639908 -105.352570
v 690.600403 84.639908 -105.352570
v -549.941223 84.639908 -605.352661
v 690.600403 84.639908 -605.352661
v -549.941223 -78.701881 -605.352661
v 690.600403 -78.701881 -605.352661
v 40.600403 -78.701881 -105.352570
v 40.600403 -78.701881 -605.352661
v 40.600403 84.639908 -605.352661
v 40.600403 84.639908 -105.352570
v 365.600403 -78.701881 -105.352570
v 365.600403 84.639908 -105.352570
v 365.600403 84.639908 -605.352661
v 365.600403 -78.701881 -605.352661
v -284.399597 -78.701881 -105.352570
v -284.399597 -78.701881 -605.352661
v -284.399597 84.639908 -605.352661
v -284.399597 84.639908 -105.352570
v 365.600403 -78.701881 -64.722107
v 365.600403 84.639908 -64.722107
v 690.600403 -78.701881 -64.722107
v 690.600403 84.639908 -64.722107
v -549.941223 -78.701881 -64.722107
v -284.399597 -78.701881 -64.722107
v -284.399597 84.639908 -64.722107
v -549.941223 84.639908 -64.722107
v -549.941223 76.472809 -605.352661
v -284.399597 76.472809 -605.352661
v 40.600403 76.472809 -605.352661
v 365.600403 76.472809 -605.352661
v 690.600403 76.472809 -605.352661
v 690.600403 76.472809 -105.352570
v 690.600403 76.472809 -64.722107
v 365.600403 76.472809 -64.722107
v 365.600403 76.472809 -105.352570
v 40.600403 76.472809 -105.352570
v -284.399567 76.472809 -105.352570
v -284.399567 76.472809 -64.722137
v -549.941223 76.472809 -64.722107
v -549.941223 76.472809 -105.352570
vt 0.007189 0.356792
vt 0.007189 0.161661
vt 0.010618 0.161661
vt 0.010618 0.356792
vt 0.235328 0.356792
vt 0.235328 0.161661
vt 0.238756 0.161661
vt 0.238756 0.356792
vt 0.463466 0.161661
vt 0.463466 0.356792
vt 0.010618 0.158387
vt 0.235328 0.158387
vt 0.235328 0.360375
vt 0.010618 0.360375
vt 0.899669 0.286334
vt 0.785414 0.286334
vt 0.785413 0.252074
vt 0.899669 0.252074
vt 0.010566 0.391181
vt 0.659142 0.389528
vt 0.659633 0.692428
vt 0.011057 0.694081
vt 0.687914 0.252075
vt 0.687913 0.286334
vt 0.466769 0.286334
vt 0.466769 0.252074
vt 0.785413 0.208404
vt 0.899670 0.208404
vt 0.999043 0.252075
vt 0.999043 0.286334
vt 0.667780 0.707043
vt 0.003352 0.708824
vt 0.666847 0.374785
vt 0.002419 0.376566
vt 0.791400 0.183458
vt 0.724720 0.180770
vt 0.724369 0.147425
vt 0.795914 0.147841
vt 0.319249 0.991599
vt 0.320267 0.741353
vt 0.482962 0.741542
vt 0.481867 0.992313
vt 0.723539 0.006429
vt 0.793137 0.005639
vt 0.793734 0.039172
vt 0.723821 0.039918
vt 0.984505 0.149978
vt 0.985341 0.183471
vt 0.877400 0.186149
vt 0.876580 0.152661
vt 0.585025 0.154277
vt 0.584345 0.187787
vt 0.476417 0.185784
vt 0.477018 0.152285
vt 0.653148 0.148681
vt 0.653727 0.040255
vt 0.653830 0.006718
vt 0.156766 0.991098
vt 0.157437 0.740295
vt 0.657734 0.183757
vt 0.868538 0.186336
vt 0.799751 0.186112
vt 0.799214 0.154895
vt 0.867756 0.152892
vt 0.646257 0.742889
vt 0.643604 0.991721
vt 0.863027 0.003578
vt 0.863905 0.037000
vt 0.867035 0.144217
vt 0.596386 0.039271
vt 0.594934 0.146140
vt 0.596747 0.005845
vt 0.023957 0.740587
vt 0.024685 0.989417
vt 0.649461 0.155688
vt 0.649741 0.186529
vt 0.593205 0.187961
vt 0.593992 0.154513
vt 0.484357 0.721401
vt 0.645992 0.722840
vt 0.024424 0.720470
vt 0.155967 0.720305
vt 0.156705 0.995185
vt 0.021431 0.991343
vt 0.319233 0.995687
vt 0.481877 0.996422
vt 0.646688 0.993869
vt 0.650373 0.742890
vt 0.646577 0.718967
vt 0.483884 0.717479
vt 0.482250 0.737589
vt 0.320281 0.737270
vt 0.158174 0.736354
vt 0.156568 0.716421
vt 0.023760 0.716642
vt 0.019826 0.740546
vn -1.000000 0.000000 0.000000
vn -1.000000 0.000000 0.000000
vn -1.000000 0.000000 0.000000
vn -1.000000 0.000000 0.000000
vn 0.000000 1.000000 0.000000
vn 0.000000 1.000000 0.000000
vn 0.000000 1.000000 0.000000
vn 0.000000 1.000000 0.000000
vn 1.000000 0.000000 0.000000
vn 1.000000 0.000000 0.000000
vn 1.000000 0.000000 0.000000
vn 1.000000 0.000000 0.000000
vn 0.000000 -1.000000 0.000000
vn 0.000000 -1.000000 0.000000
vn 0.000000 -1.000000 0.000000
vn 0.000000 -1.000000 0.000000
vn 0.000000 0.000000 1.000000
vn 0.000000 0.000000 1.000000
vn 0.000000 0.000000 1.000000
vn 0.000000 0.000000 1.000000
vn 0.000000 0.000000 -1.000000
vn 0.000000 0.000000 -1.000000
vn 0.000000 0.000000 -1.000000
vn 0.000000 0.000000 -1.000000
vn 0.000000 0.000000 1.000000
vn 0.000000 0.000000 1.000000
vn 0.000000 0.000000 1.000000
vn 0.000000 0.000000 1.000000
vn 0.000000 1.000000 0.000000
vn 0.000000 1.000000 0.000000
vn 0.000000 1.000000 0.000000
vn 0.000000 1.000000 0.000000
vn 0.000000 0.000000 -1.000000
vn 0.000000 0.000000 -1.000000
vn 0.000000 0.000000 -1.000000
vn 0.000000 0.000000 -1.000000
vn 0.000000 -1.000000 0.000000
vn 0.000000 -1.000000 0.000000
vn 0.000000 -1.000000 0.000000
vn 0.000000 -1.000000 0.000000
vn 1.000000 0.000000 0.000000
vn 1.000000 0.000000 0.000000
vn 1.000000 0.000000 0.000000
vn 1.000000 0.000000 0.000000
vn -1.000000 0.000000 0.000000
vn -1.000000 0.000000 0.000000
vn -1.000000 0.000000 0.000000
vn -1.000000 0.000000 0.000000
vn 0.000000 0.000000 -1.000000
vn 0.000000 0.000000 -1.000000
vn 1.000000 0.000000 0.000000
vn 1.000000 0.000000 0.000000
vn 0.000000 0.000000 1.000000
vn 0.000000 0.000000 1.000000
vn -1.000000 0.000000 0.000000
vn -1.000000 0.000000 0.000000
vn 0.000000 0.000000 1.000000
vn 0.000000 0.000000 1.000000
vn 0.000000 0.000000 1.000000
vn 0.000000 0.000000 1.000000
vn 0.000000 1.000000 0.000000
vn 0.000000 1.000000 0.000000
vn 0.000000 1.000000 0.000000
vn 0.000000 1.000000 0.000000
vn 0.000000 0.000000 -1.000000
vn 0.000000 0.000000 -1.000000
vn 0.000000 0.000000 -1.000000
vn 0.000000 0.000000 -1.000000
vn 0.000000 -1.000000 0.000000
vn 0.000000 -1.000000 0.000000
vn 0.000000 -1.000000 0.000000
vn 0.000000 -1.000000 0.000000
vn 1.000000 0.000000 0.000000
vn 1.000000 0.000000 0.000000
vn 1.000000 0.000000 0.000000
vn 1.000000 0.000000 0.000000
vn -1.000000 0.000000 0.000000
vn -1.000000 0.000000 0.000000
vn -1.000000 0.000000 0.000000
vn -1.000000 0.000000 0.000000
vn 0.000000 -1.000000 0.000000
vn 0.000000 -1.000000 0.000000
vn 0.000000 0.000000 -1.000000
vn 0.000000 0.000000 -1.000000
vn 0.000000 1.000000 0.000000
vn 0.000000 1.000000 0.000000
vn 0.000000 0.000000 1.000000
vn 0.000000 0.000000 1.000000
vn 0.000000 0.000000 1.000000
vn 0.000000 0.000000 1.000000
vn 0.000000 0.000000 1.000000
vn 0.000000 0.000000 1.000000
vn 0.000000 1.000000 0.000000
vn 0.000000 1.000000 0.000000
vn 0.000000 0.000000 -1.000000
vn 0.000000 0.000000 -1.000000
vn 0.000000 -1.000000 0.000000
vn 0.000000 -1.000000 0.000000
vn 0.000000 -1.000000 0.000000
vn 0.000000 -1.000000 0.000000
vn 0.000000 0.000000 -1.000000
vn 0.000000 0.000000 -1.000000
vn 0.000000 1.000000 0.000000
vn 0.000000 1.000000 0.000000
vn 0.000000 0.000000 1.000000
vn 0.000000 0.000000 1.000000
vn 0.000000 0.000000 1.000000
vn 0.000000 0.000000 1.000000
vn -1.000000 0.000000 0.000000
vn -1.000000 0.000000 0.000000
vn -1.000000 0.000000 0.000000
vn -1.000000 0.000000 0.000000
vn 0.000000 -1.000000 0.000000
vn 0.000000 -1.000000 0.000000
vn 1.000000 0.000000 0.000000
vn 1.000000 0.000000 0.000000
vn 0.000000 1.000000 0.000000
vn 0.000000 1.000000 0.000000
vn 0.000000 -1.000000 0.000000
vn 0.000000 -1.000000 0.000000
vn 1.000000 -0.000000 0.000000
vn 1.000000 0.000000 0.000000
vn 1.000000 0.000000 0.000000
vn 1.000000 -0.000000 0.000000
vn 0.000000 1.000000 0.000000
vn 0.000000 1.000000 0.000000
vn -1.000000 0.000000 0.000000
vn -1.000000 0.000000 0.000000
vn 0.000000 0.000000 -1.000000
vn 0.000000 0.000000 -1.000000
vn 0.000000 0.000000 -1.000000
vn 0.000000 0.000000 -1.000000
vn 0.000000 0.000000 -1.000000
vn 1.000000 0.000000 0.000000
vn 1.000000 0.000000 0.000000
vn 1.000000 0.000000 0.000000
vn 0.000000 0.000000 1.000000
vn 0.000000 0.000000 1.000000
vn -1.000000 0.000000 0.000000
vn -1.000000 0.000000 0.000000
vn 0.000000 0.000000 1.000000
vn 0.000000 0.000000 1.000000
vn 0.000000 0.000000 1.000000
vn 1.000000 0.000003 0.000000
vn 1.000000 0.000003 0.000000
vn 0.000000 -0.000002 1.000000
vn 0.000000 -0.000002 1.000000
vn -1.000000 0.000000 0.000000
vn -1.000000 0.000000 0.000000
vn -1.000000 0.000000 0.000000
s off
g Floor_1
usemtl initialShadingGroup
f 1/1/1 2/2/2 4/3/3 3/4/4
f 3/4/5 4/3/6 6/6/7 5/5/8
f 5/5/9 6/6/10 8/7/11 7/8/12
f 7/8/13 8/7/14 2/9/15 1/10/16
f 2/11/17 8/12/18 6/6/19 4/3/20
f 7/13/21 1/14/22 3/4/23 5/5/24
s 1
f 19/15/25 20/16/26 9/17/27 10/18/28
s off
f 11/19/29 12/20/30 14/21/31 13/22/32
s 2
f 15/23/33 17/24/34 18/25/35 16/26/36
s off
f 15/27/37 16/28/38 10/18/39 9/17/40
s 3
f 16/29/41 18/30/42 19/15/43 10/18/44
s 4
f 9/17/45 20/16/46 17/24/47 15/23/48
s 2
f 13/22/49 14/21/50 18/31/35 17/32/34
s 3
f 19/33/43 18/31/42 14/21/51 12/20/52
s 1
f 20/34/26 19/33/25 12/20/53 11/19/54
s 4
f 17/32/47 20/34/46 11/19/55 13/22/56
s 5
f 57/35/57 58/36/58 29/37/59 33/38/60
s 6
f 31/39/61 32/40/62 34/41/63 35/42/64
s 7
f 51/43/65 52/44/66 36/45/67 30/46/68
s 8
f 29/37/69 30/46/70 36/45/71 33/38/72
s 9
f 28/47/73 53/48/74 54/49/75 22/50/76
s 10
f 21/51/77 62/52/78 49/53/79 27/54/80
s 8
f 37/55/81 38/56/82 30/46/70 29/37/69
s 7
f 50/57/83 51/43/65 30/46/68 38/56/84
s 6
f 39/58/85 40/59/86 32/40/62 31/39/61
s 5
f 29/37/59 58/36/58 59/60/87 37/55/88
s 11
f 55/61/89 56/62/90 41/63/91 43/64/92
s 6
f 35/42/64 34/41/63 24/65/93 26/66/94
s 7
f 36/45/67 52/44/66 53/67/95 28/68/96
s 8
f 33/38/72 36/45/71 28/68/97 22/69/98
f 27/70/99 38/56/82 37/55/81 21/71/100
s 7
f 27/70/101 49/72/102 50/57/83 38/56/84
s 6
f 23/73/103 40/59/86 39/58/85 25/74/104
s 12
f 46/75/105 60/76/106 61/77/107 45/78/108
s 13
f 56/62/109 57/35/110 33/38/111 41/63/112
s 8
f 33/38/72 22/69/98 43/64/113 41/63/114
s 9
f 54/49/75 55/61/115 43/64/116 22/50/76
s 6
f 24/65/93 34/41/63 42/79/117 44/80/118
s 8
f 21/71/100 37/55/81 46/75/119 45/78/120
s 14
f 37/55/121 59/60/122 60/76/123 46/75/124
s 6
f 40/59/86 23/73/103 48/81/125 47/82/126
s 10
f 61/77/127 62/52/78 21/51/77 45/78/128
s 7
f 25/74/129 39/58/130 50/83/83 49/84/102
f 51/85/65 50/83/83 39/58/130 31/39/131
f 52/86/66 51/85/65 31/39/131 35/42/132
f 53/87/95 52/86/66 35/42/132 26/66/133
s 9
f 54/88/75 53/87/74 26/66/134 24/65/135
f 55/89/115 54/88/75 24/65/135 44/80/136
s 11
f 42/79/137 56/90/90 55/89/89 44/80/138
s 13
f 34/41/139 57/91/110 56/90/109 42/79/140
s 5
f 32/40/141 58/92/58 57/91/57 34/41/142
f 40/59/143 59/93/87 58/92/58 32/40/141
s 14
f 60/94/123 59/93/122 40/59/144 47/82/145
s 12
f 61/95/107 60/94/106 47/82/146 48/81/147
s 10
f 23/73/148 62/96/78 61/95/127 48/81/149
f 49/84/79 62/96/78 23/73/148 25/74/150
