# This file uses centimeters as units for non-parametric coordinates.

mtllib Water.mtl
g default
v -627.490356 -19.836342 133.254044
v 627.490356 -19.836342 164.261673
v -627.490356 19.836342 133.254044
v 627.490356 19.836342 164.261673
v -627.490356 19.836342 -164.261673
v 627.490356 19.836342 -164.261673
v -627.490356 -19.836342 -164.261673
v 627.490356 -19.836342 -164.261673
v 0.000000 -19.836342 164.261673
v 0.000000 -19.836342 -164.261673
v 0.000000 19.836342 -164.261673
v 0.000000 19.836342 164.261673
v -313.745178 -19.836342 164.261673
v -313.745178 -19.836342 -164.261673
v -313.745178 19.836342 -164.261673
v -313.745178 19.836342 164.261673
v -470.617767 -19.836342 133.254074
v -470.617767 -19.836342 -164.261673
v -470.617767 19.836342 -164.261673
v -470.617767 19.836342 133.254074
v -329.432465 -19.836342 133.254074
v -329.432465 19.836342 133.254074
v -329.432465 19.836342 -164.261673
v -329.432465 -19.836342 -164.261673
vt 0.819569 0.001759
vt 0.862369 0.968947
vt 0.819569 0.029606
vt 0.833052 0.968947
vt 0.589698 0.029606
vt 0.589698 0.968947
vt 0.560075 0.029606
vt 0.560075 0.968947
vt 0.344293 0.029606
vt 0.312424 0.968947
vt 0.589698 1.000954
vt 0.589698 0.001759
vt 0.862369 0.499463
vt 0.312424 0.499463
vt 0.560075 0.499463
vt 0.589698 0.499463
vt 0.833052 0.499463
vt 0.862369 0.259184
vt 0.312424 0.259184
vt 0.560075 0.259184
vt 0.589698 0.259184
vt 0.833052 0.259184
vt 0.848777 0.146712
vt 0.344293 0.146712
vt 0.560075 0.146712
vt 0.589698 0.146712
vt 0.819569 0.146712
vt 0.848777 0.259184
vt 0.344293 0.259184
vt 0.819569 0.259184
vt 0.589698 0.259184
vt 0.560075 0.259184
vt 0.848777 0.029606
vt 0.833052 1.000954
vn 0.000000 0.000000 1.000000
vn 0.000000 0.000000 1.000000
vn 0.000000 0.000000 1.000000
vn 0.000000 0.000000 1.000000
vn 0.000000 1.000000 0.000000
vn 0.000000 1.000000 0.000000
vn 0.000000 1.000000 0.000000
vn 0.000000 1.000000 0.000000
vn 0.000000 0.000000 -1.000000
vn 0.000000 0.000000 -1.000000
vn 0.000000 0.000000 -1.000000
vn 0.000000 0.000000 -1.000000
vn 0.000000 -1.000000 0.000000
vn 0.000000 -1.000000 0.000000
vn 0.000000 -1.000000 0.000000
vn 0.000000 -1.000000 0.000000
vn 1.000000 0.000000 0.000000
vn 1.000000 0.000000 0.000000
vn 1.000000 0.000000 0.000000
vn 1.000000 0.000000 0.000000
vn -1.000000 0.000000 0.000000
vn -1.000000 0.000000 0.000000
vn -1.000000 0.000000 0.000000
vn -1.000000 0.000000 0.000000
vn 0.000000 -1.000000 0.000000
vn 0.000000 -1.000000 0.000000
vn 0.000000 0.000000 -1.000000
vn 0.000000 0.000000 -1.000000
vn 0.000000 1.000000 0.000000
vn 0.000000 1.000000 0.000000
vn -0.093710 0.000000 0.995600
vn -0.093710 0.000000 0.995600
vn 0.000000 -1.000000 0.000000
vn 0.000000 -1.000000 0.000000
vn 0.000000 -1.000000 0.000000
vn 0.000000 -1.000000 0.000000
vn 0.000000 0.000000 -1.000000
vn 0.000000 0.000000 -1.000000
vn 0.000000 0.000000 -1.000000
vn 0.000000 0.000000 -1.000000
vn 0.000000 1.000000 0.000000
vn 0.000000 1.000000 0.000000
vn 0.000000 1.000000 0.000000
vn 0.000000 1.000000 0.000000
vn -0.000000 0.000000 1.000000
vn -0.000000 0.000000 1.000000
vn -0.193909 0.000000 0.981020
vn -0.193909 0.000000 0.981020
vn 0.000000 -1.000000 0.000000
vn 0.000000 -1.000000 0.000000
vn 0.000000 0.000000 -1.000000
vn 0.000000 0.000000 -1.000000
vn 0.000000 1.000000 0.000000
vn 0.000000 1.000000 0.000000
vn -0.000000 0.000000 1.000000
vn -0.000000 0.000000 1.000000
s 1
g Water
usemtl initialShadingGroup
f 12/17/1 9/13/2 2/2/3 4/4/4
s 2
f 11/16/5 12/17/6 4/4/7 6/6/8
s 3
f 10/15/9 11/16/10 6/6/11 8/8/12
s 4
f 9/14/13 10/15/14 8/8/15 2/10/16
s off
f 2/34/17 8/11/18 6/6/19 4/4/20
f 7/12/21 1/1/22 3/3/23 5/5/24
s 4
f 13/19/25 14/20/26 10/15/14 9/14/13
s 3
f 14/20/27 15/21/28 11/16/10 10/15/9
s 2
f 15/21/29 16/22/30 12/17/6 11/16/5
s 1
f 16/22/31 13/18/32 9/13/2 12/17/1
s 4
f 17/24/33 18/25/34 24/32/35 21/29/36
s 3
f 18/25/37 19/26/38 23/31/39 24/32/40
s 2
f 19/26/41 20/27/42 22/30/43 23/31/44
s 1
f 20/27/45 17/23/46 21/28/47 22/30/48
s 4
f 7/7/49 18/25/34 17/24/33 1/9/50
s 3
f 5/5/51 19/26/38 18/25/37 7/7/52
s 2
f 3/3/53 20/27/42 19/26/41 5/5/54
s 1
f 1/33/55 17/23/46 20/27/45 3/3/56
f 22/30/48 21/28/47 13/18/32 16/22/31
s 2
f 23/31/44 22/30/43 16/22/30 15/21/29
s 3
f 24/32/40 23/31/39 15/21/28 14/20/27
s 4
f 21/29/36 24/32/35 14/20/26 13/19/25
