# This file uses centimeters as units for non-parametric coordinates.

mtllib Crystal_2.mtl
g default
v -10.721588 50.976288 9.076767
v -18.026764 11.356384 -1.252258
v -19.140625 58.149185 -8.605087
v -7.014954 86.824554 -3.187225
v -16.120483 64.089386 -7.224228
v -11.663788 53.068512 8.218369
v -17.176880 60.352402 -7.024071
v -18.174530 44.329956 0.760857
v -7.507965 89.018555 -5.802353
v -10.503082 80.760925 -6.342323
v 3.983032 2.255295 -11.782806
v 5.014740 51.362488 -7.461441
v -4.755615 38.060333 -13.095398
v -2.848450 64.088959 -10.165176
v -7.356995 -48.539688 -10.512955
v -19.478058 53.359543 -9.395935
v -22.198181 28.043076 -9.560043
v -7.891144 33.156616 -13.023743
v 12.280243 31.249390 -1.104202
v 5.993988 44.190384 9.701294
v 3.774017 55.363586 9.304352
v 8.836426 51.259338 -3.428268
v 1.847900 76.824432 1.452110
v 12.504120 -89.018547 -8.779984
v 22.198181 -74.987289 2.390900
v -3.762756 -87.039169 -9.246353
v -10.335571 -71.028564 1.458145
v 15.625366 -58.976707 13.095398
v -0.641510 -56.997314 12.629021
vt 0.195014 0.912311
vt 0.172778 0.835920
vt 0.254968 0.955292
vt 0.388767 0.828096
vt 0.243267 0.778363
vt 0.291770 0.789768
vt 0.268160 0.757905
vt 0.380768 0.751344
vt 0.399909 0.822666
vt 0.284827 0.737980
vt 0.811432 0.401641
vt 0.383022 0.641577
vt 0.489557 0.608228
vt 0.793284 0.278139
vt 0.634373 0.305126
vt 0.771831 0.146464
vt 0.027176 0.680030
vt 0.071005 0.563652
vt 0.138082 0.591942
vt 0.109045 0.516170
vt 0.164892 0.614460
vt 0.199555 0.501178
vt 0.356696 0.427603
vt 0.138839 0.685189
vt 0.461398 0.078708
vt 0.562392 0.050700
vt 0.010795 0.737739
vt 0.047050 0.786087
vt 0.670197 0.040787
vt 0.294982 0.600856
vt 0.264105 0.607913
vt 0.368404 0.988271
vt 0.452554 0.906617
vt 0.501384 0.868427
vt 0.935375 0.758311
vt 0.833142 0.920950
vt 0.834344 0.700986
vt 0.732110 0.863626
vt 0.732711 0.753643
vt 0.934774 0.868293
vt 0.907448 0.477219
vn -0.760620 0.247166 0.600306
vn -0.760620 0.247166 0.600306
vn -0.760620 0.247166 0.600306
vn -0.229642 -0.016649 -0.973133
vn -0.229642 -0.016649 -0.973133
vn -0.229642 -0.016649 -0.973133
vn -0.229642 -0.016649 -0.973133
vn -0.859058 0.266902 0.436787
vn -0.859058 0.266902 0.436787
vn -0.859058 0.266902 0.436787
vn -0.859058 0.266902 0.436787
vn -0.859058 0.266902 0.436787
vn -0.859058 0.266902 0.436787
vn -0.859058 0.266902 0.436787
vn 0.424511 0.070516 -0.902673
vn 0.424511 0.070516 -0.902673
vn 0.424511 0.070516 -0.902673
vn 0.424511 0.070516 -0.902673
vn 0.931283 0.195948 0.307111
vn 0.931283 0.195948 0.307111
vn 0.931283 0.195948 0.307111
vn 0.931283 0.195948 0.307111
vn 0.931283 0.195948 0.307111
vn -0.943147 0.052593 0.328187
vn -0.943147 0.052593 0.328187
vn -0.943147 0.052593 0.328187
vn -0.943147 0.052593 0.328187
vn -0.943147 0.052593 0.328187
vn -0.943147 0.052593 0.328187
vn -0.164323 0.138743 -0.976600
vn -0.164323 0.138743 -0.976600
vn -0.164323 0.138743 -0.976600
vn -0.164323 0.138743 -0.976600
vn -0.164323 0.138743 -0.976600
vn -0.164323 0.138743 -0.976600
vn -0.164323 0.138743 -0.976600
vn -0.164323 0.138743 -0.976600
vn 0.749380 0.309025 -0.585605
vn 0.749380 0.309025 -0.585605
vn 0.749380 0.309025 -0.585605
vn 0.749380 0.309025 -0.585605
vn 0.749380 0.309025 -0.585605
vn 0.749380 0.309025 -0.585605
vn -0.115235 0.332181 0.936150
vn -0.115235 0.332181 0.936150
vn -0.115235 0.332181 0.936150
vn -0.115235 0.332181 0.936150
vn -0.115235 0.332181 0.936150
vn 0.725719 0.045166 -0.686508
vn 0.725719 0.045166 -0.686508
vn 0.725719 0.045166 -0.686508
vn 0.725719 0.045166 -0.686508
vn 0.725719 0.045166 -0.686508
vn 0.725719 0.045166 -0.686508
vn 0.024931 -0.030546 -0.999222
vn 0.024931 -0.030546 -0.999222
vn 0.024931 -0.030546 -0.999222
vn 0.024931 -0.030546 -0.999222
vn 0.024931 -0.030546 -0.999222
vn 0.024931 -0.030546 -0.999222
vn -0.725719 -0.045165 0.686508
vn -0.725719 -0.045165 0.686508
vn -0.725719 -0.045165 0.686508
vn -0.725719 -0.045165 0.686508
vn -0.725719 -0.045165 0.686508
vn -0.725719 -0.045165 0.686508
vn -0.957231 -0.130604 -0.258169
vn -0.957231 -0.130604 -0.258169
vn -0.957231 -0.130604 -0.258169
vn -0.957231 -0.130604 -0.258169
vn -0.957231 -0.130604 -0.258169
vn 0.906791 0.098144 0.409997
vn 0.906791 0.098144 0.409997
vn 0.906791 0.098144 0.409997
vn 0.906791 0.098144 0.409997
vn -0.093742 -0.579667 0.809443
vn -0.093742 -0.579667 0.809443
vn -0.093742 -0.579667 0.809443
vn -0.093742 -0.579667 0.809443
vn -0.093742 -0.579667 0.809443
vn -0.093742 -0.579667 0.809443
vn -0.024932 0.030546 0.999222
vn -0.024932 0.030546 0.999222
vn -0.024932 0.030546 0.999222
vn -0.024932 0.030546 0.999222
vn -0.024932 0.030546 0.999222
s off
g polySurface17
usemtl initialShadingGroup
f 5/5/1 3/7/2 7/6/3
f 17/12/4 16/10/5 18/30/6 15/15/7
s 1
f 9/1/8 10/2/9 4/3/10
f 4/3/10 10/2/9 6/4/11
f 10/2/9 5/5/12 6/4/11
f 5/5/12 7/6/13 6/4/11
f 7/6/13 8/8/14 6/4/11
s off
f 13/31/15 14/24/16 12/21/17 11/23/18
s 2
f 23/17/19 21/18/20 22/19/21
f 19/22/22 22/19/21 20/20/23
f 21/18/20 20/20/23 22/19/21
s 3
f 2/13/24 8/8/25 17/12/26
f 17/12/26 8/8/25 16/10/27
f 7/6/28 3/7/29 8/8/25
f 8/8/25 3/7/29 16/10/27
s 4
f 9/28/30 14/24/31 10/2/32
f 10/2/32 14/24/31 5/5/33
f 18/30/34 16/10/35 13/31/36
f 13/31/36 16/10/35 14/24/31
f 16/10/35 3/7/37 14/24/31
f 3/7/37 5/5/33 14/24/31
s 6
f 9/28/38 4/27/39 14/24/40
f 4/27/39 23/17/41 14/24/40
f 22/19/42 12/21/43 23/17/41
f 23/17/41 12/21/43 14/24/40
s 7
f 4/3/44 6/4/45 23/32/46
f 1/9/47 21/33/48 6/4/45
f 6/4/45 21/33/48 23/32/46
s 8
f 24/29/49 11/23/50 25/26/51
f 25/26/51 11/23/50 19/22/52
f 12/21/53 22/19/54 11/23/50
f 11/23/50 22/19/54 19/22/52
s 9
f 13/31/55 11/23/56 18/30/57
f 18/30/57 11/23/56 15/15/58
f 11/23/56 24/29/59 15/15/58
f 24/29/59 26/16/60 15/15/58
s 10
f 27/14/61 29/11/62 2/13/63
f 6/4/64 8/8/65 1/9/66
f 1/9/66 8/8/65 29/11/62
f 29/11/62 8/8/65 2/13/63
s 12
f 17/12/67 15/15/68 2/13/69
f 2/13/69 15/15/68 27/14/70
f 26/16/71 27/14/70 15/15/68
s off
f 28/25/72 25/26/73 19/22/74 20/20/75
s 13
f 29/40/76 27/36/77 28/35/78
f 28/35/78 27/36/77 25/37/79
f 27/36/77 26/38/80 25/37/79
f 25/37/79 26/38/80 24/39/81
s 14
f 28/41/82 20/34/83 29/11/84
f 21/33/85 1/9/86 20/34/83
f 29/11/84 20/34/83 1/9/86
