# This file uses centimeters as units for non-parametric coordinates.

mtllib Crystal_1.mtl
g default
v -12.946732 24.751793 8.160145
v -12.344208 20.677620 -6.628403
v -12.746750 27.002396 2.196068
v -12.820419 24.980484 8.248936
v 0.475266 28.873520 -13.264877
v -1.603027 30.904106 -12.088184
v 12.985977 17.521587 -5.978962
v 12.473999 14.313053 8.542545
v -1.026382 41.069790 -0.023827
v 6.994247 29.228607 -9.189941
v -0.511322 19.451836 15.667967
v -8.183777 35.374775 5.052673
v -9.490616 32.291058 6.451572
v -9.315674 25.158844 10.439175
v -1.994202 41.997372 2.844109
v 4.927216 26.650208 12.964153
v 12.453598 -41.937767 -8.281990
v 13.160004 -40.871067 6.519058
v -2.403015 -38.702095 13.283129
v 1.348236 -41.345127 -15.839642
v -11.596954 -39.434517 -8.832596
v -13.160004 -38.143848 5.757801
vt 0.718905 0.823538
vt 0.740367 0.737870
vt 0.750400 0.788108
vt 0.581637 0.899838
vt 0.563103 0.760527
vt 0.801152 0.710546
vt 0.678812 0.659388
vt 0.666962 0.904898
vt 0.801108 0.708388
vt 0.547485 0.744066
vt 0.547860 0.033647
vt 0.832952 0.039797
vt 0.687265 0.046350
vt 0.276434 0.001110
vt 0.422307 0.018400
vt 0.275567 0.585117
vt 0.412554 0.630551
vt 0.256871 0.763587
vt 0.145027 0.686225
vt 0.468229 0.743309
vt 0.088104 0.020303
vt 0.535800 0.900396
vt 0.002160 0.932817
vt 0.268371 0.915450
vt 0.117216 0.998369
vt 0.005278 0.784400
vt 0.248409 0.767070
vt 0.129810 0.701524
vt 0.837951 0.712484
vt 0.949484 0.658236
vt 0.961521 0.768900
vt 0.969781 0.034930
vn -0.497465 0.414008 0.762316
vn -0.497465 0.414008 0.762316
vn -0.497465 0.414008 0.762316
vn 0.866104 0.480789 0.136766
vn 0.866104 0.480789 0.136766
vn 0.866104 0.480789 0.136766
vn 0.866104 0.480789 0.136766
vn 0.866104 0.480789 0.136766
vn 0.866104 0.480789 0.136766
vn 0.345361 0.709465 -0.614317
vn 0.345361 0.709465 -0.614317
vn 0.345361 0.709465 -0.614317
vn 0.345361 0.709465 -0.614317
vn -0.201587 0.474213 0.857021
vn -0.201587 0.474213 0.857021
vn -0.201587 0.474213 0.857021
vn -0.201587 0.474213 0.857021
vn -0.888658 0.438088 0.135522
vn -0.888658 0.438088 0.135522
vn -0.888658 0.438088 0.135522
vn -0.888658 0.438088 0.135522
vn -0.888658 0.438088 0.135522
vn -0.728537 0.540599 -0.420697
vn -0.728537 0.540599 -0.420697
vn -0.728537 0.540599 -0.420697
vn -0.997387 -0.000487 -0.072238
vn -0.997387 -0.000487 -0.072238
vn -0.997387 -0.000487 -0.072238
vn -0.472841 0.026417 -0.880752
vn -0.472841 0.026417 -0.880752
vn -0.472841 0.026417 -0.880752
vn -0.472841 0.026417 -0.880752
vn 0.432087 -0.038725 0.901000
vn 0.432087 -0.038725 0.901000
vn 0.432087 -0.038725 0.901000
vn 0.999978 0.001586 -0.006515
vn 0.999978 0.001586 -0.006515
vn 0.999978 0.001586 -0.006515
vn 0.999978 0.001586 -0.006515
vn -0.547614 -0.023784 0.836393
vn -0.547614 -0.023784 0.836393
vn -0.547614 -0.023784 0.836393
vn 0.543016 0.033198 -0.839066
vn 0.543016 0.033198 -0.839066
vn 0.543016 0.033198 -0.839066
vn 0.543016 0.033198 -0.839066
vn -0.104952 -0.991533 0.076468
vn -0.104952 -0.991533 0.076468
vn -0.104952 -0.991533 0.076467
vn -0.104952 -0.991533 0.076468
vn -0.104952 -0.991533 0.076468
vn -0.104952 -0.991533 0.076467
vn -0.997387 -0.000487 -0.072238
vn -0.997387 -0.000487 -0.072238
vn -0.472841 0.026417 -0.880752
vn 0.543016 0.033198 -0.839066
vn 0.432087 -0.038725 0.901000
vn 0.432087 -0.038725 0.901000
vn -0.547614 -0.023784 0.836393
vn -0.547614 -0.023784 0.836393
vn -0.547614 -0.023784 0.836393
vn -0.201587 0.474213 0.857021
vn -0.201587 0.474213 0.857021
vn -0.728537 0.540599 -0.420697
vn -0.728537 0.540599 -0.420697
vn -0.728537 0.540599 -0.420697
s off
g polySurface22
usemtl initialShadingGroup
f 14/29/1 13/3/2 4/6/3
s 1
f 15/22/4 16/18/5 9/4/6
f 9/4/6 16/18/5 10/20/7
f 10/20/7 16/18/5 7/17/8
f 16/18/5 8/16/9 7/17/8
s off
f 5/10/10 6/5/11 9/4/12 10/20/13
s 2
f 13/3/14 16/31/15 15/8/16 12/1/17
s 3
f 12/1/18 3/2/19 13/3/20
f 1/9/21 4/6/22 3/2/19
f 4/6/22 13/3/20 3/2/19
s 4
f 9/4/23 12/1/24 15/8/25
s 5
f 2/7/26 1/9/27 3/2/28
s 6
f 21/13/29 2/7/30 20/11/31
f 20/11/31 2/7/30 5/10/32
s 7
f 11/19/33 8/16/34 16/18/35
s 8
f 18/14/36 17/15/37 8/16/38
f 8/16/38 17/15/37 7/17/39
s 9
f 1/9/40 14/29/41 4/6/42
s 10
f 17/15/43 20/11/44 7/17/45
f 7/17/45 20/11/44 5/10/46
s 11
f 22/23/47 18/24/48 19/25/49
f 22/23/47 21/26/50 17/27/51 18/24/48
f 17/27/51 21/26/50 20/28/52
s 5
f 21/13/53 22/12/54 2/7/26
f 2/7/26 22/12/54 1/9/27
s 6
f 5/10/32 2/7/30 6/5/55
s 10
f 7/17/45 5/10/46 10/20/56
s 7
f 18/14/57 8/16/34 19/21/58
f 19/21/58 8/16/34 11/19/33
s 9
f 19/32/59 11/30/60 22/12/61
f 22/12/61 11/30/60 1/9/40
f 1/9/40 11/30/60 14/29/41
s 2
f 13/3/14 14/29/62 11/30/63 16/31/15
s 4
f 9/4/23 6/5/64 3/2/65 12/1/24
f 3/2/65 6/5/64 2/7/66
