# This file uses centimeters as units for non-parametric coordinates.

mtllib Crystal_3.mtl
g default
v 10.290253 -7.810983 -2.512781
v -22.334747 18.468307 14.843908
v -23.118713 36.485061 7.703363
v -18.684448 36.167861 17.281042
v -22.884674 31.106597 -2.512785
v 8.040985 43.882216 5.881742
v 4.430206 66.637130 4.755018
v -17.833801 41.244735 17.871824
v -21.839691 32.732619 -3.127924
v -6.415619 14.369468 -11.191132
v 10.015228 -1.490434 14.843912
v -5.282776 -11.665933 23.522263
v 8.653168 29.812652 10.347960
v -12.604279 27.751349 20.431313
v -13.465698 71.418990 16.508135
v 0.197571 57.860473 11.017447
v 1.453979 77.109206 3.061266
v 2.689941 74.171645 4.694910
v -3.694122 81.776732 9.130468
v -23.216034 38.721389 6.456598
v -23.190674 38.138640 1.123499
v -16.215851 72.335341 15.923426
v -14.312012 77.071319 15.732775
v -7.883911 86.769103 9.736689
v -3.236664 28.592971 -9.097252
v -19.874390 39.798553 -2.439932
v -4.111298 26.837310 -9.621582
v -0.522797 79.960082 1.548780
v -7.268768 87.242324 5.269297
v -19.576599 43.734847 -1.016554
v -18.591827 -76.186084 6.213800
v -13.871704 -77.434339 -8.393967
v 12.983124 -84.536180 14.833818
v -2.037933 -80.563807 23.421169
v -18.568390 -76.192271 14.770586
v 23.216034 -87.242324 -23.522263
v 15.169678 -85.114429 -3.934740
vt 0.136852 0.857237
vt 0.158882 0.821743
vt 0.134576 0.876616
vt 0.083833 0.879752
vt 0.143948 0.760537
vt 0.251356 0.641198
vt 0.224517 0.716607
vt 0.355492 0.717945
vt 0.133315 0.897581
vt 0.435061 0.516994
vt 0.073553 0.919411
vt 0.055146 0.900499
vt 0.571484 0.104976
vt 0.662323 0.156172
vt 0.335654 0.493434
vt 0.769029 0.204597
vt 0.424190 0.676474
vt 0.365938 0.714606
vt 0.437260 0.923826
vt 0.412546 0.873466
vt 0.521129 0.848618
vt 0.238053 0.987283
vt 0.398187 0.872702
vt 0.409484 0.940733
vt 0.856041 0.415917
vt 0.901487 0.488268
vt 0.930295 0.525483
vt 0.388983 0.846083
vt 0.411853 0.812714
vt 0.128396 0.956115
vt 0.351179 0.845377
vt 0.210870 0.994482
vt 0.139900 0.978626
vt 0.367655 0.829996
vt 0.401574 0.812589
vt 0.714111 0.766017
vt 0.674420 0.840693
vt 0.666789 0.887052
vt 0.751535 0.949409
vt 0.843464 0.917002
vt 0.872739 0.817417
vt 0.935580 0.718896
vt 0.040727 0.799079
vt 0.141232 0.570730
vt 0.279629 0.398547
vt 0.027767 0.829120
vt 0.024461 0.798699
vt 0.083769 0.630685
vt 0.374870 0.047144
vt 0.477116 0.076825
vt 0.088801 0.601151
vt 0.107896 0.496756
vn 0.923743 0.210811 -0.319777
vn 0.923743 0.210811 -0.319777
vn 0.923743 0.210811 -0.319777
vn -0.898447 0.127438 0.420182
vn -0.898447 0.127438 0.420182
vn -0.898447 0.127438 0.420182
vn 0.421620 0.123396 0.898337
vn 0.421620 0.123396 0.898337
vn 0.421620 0.123396 0.898337
vn 0.421620 0.123396 0.898337
vn 0.421620 0.123396 0.898337
vn 0.421620 0.123396 0.898337
vn -0.264208 0.221944 -0.938581
vn -0.264208 0.221944 -0.938581
vn -0.264208 0.221944 -0.938581
vn -0.264208 0.221944 -0.938581
vn -0.264208 0.221944 -0.938581
vn -0.264208 0.221944 -0.938581
vn 0.475462 0.172631 0.862632
vn 0.475462 0.172631 0.862632
vn 0.475462 0.172631 0.862632
vn 0.475462 0.172631 0.862632
vn 0.475462 0.172631 0.862632
vn -0.907569 0.083186 0.411580
vn -0.907569 0.083186 0.411580
vn -0.907569 0.083186 0.411580
vn -0.907569 0.083186 0.411580
vn -0.907569 0.083186 0.411580
vn 0.724006 0.176701 0.666777
vn 0.724006 0.176701 0.666777
vn 0.724006 0.176701 0.666777
vn 0.724006 0.176701 0.666777
vn 0.724006 0.176701 0.666777
vn 0.724006 0.176701 0.666777
vn 0.726345 0.118122 -0.677105
vn 0.726345 0.118122 -0.677105
vn 0.726345 0.118122 -0.677105
vn 0.726345 0.118122 -0.677105
vn 0.726345 0.118122 -0.677105
vn 0.726345 0.118122 -0.677105
vn 0.775783 0.599444 0.197046
vn 0.775783 0.599444 0.197046
vn 0.775783 0.599444 0.197046
vn 0.775783 0.599444 0.197046
vn 0.775783 0.599444 0.197046
vn 0.775783 0.599444 0.197046
vn -0.287944 0.171819 -0.942107
vn -0.287944 0.171819 -0.942107
vn -0.287944 0.171819 -0.942107
vn -0.287944 0.171819 -0.942107
vn -0.236593 0.079819 0.968325
vn -0.236593 0.079819 0.968325
vn -0.236593 0.079819 0.968325
vn -0.236593 0.079819 0.968325
vn -0.236593 0.079819 0.968325
vn -0.904643 0.312617 -0.289640
vn -0.904643 0.312617 -0.289640
vn -0.904643 0.312617 -0.289640
vn -0.904643 0.312617 -0.289640
vn -0.904643 0.312617 -0.289640
vn -0.904643 0.312617 -0.289640
vn -0.904643 0.312617 -0.289640
vn -0.764344 0.269626 -0.585730
vn -0.764344 0.269626 -0.585730
vn -0.764344 0.269626 -0.585730
vn -0.764344 0.269626 -0.585730
vn -0.764344 0.269626 -0.585730
vn 0.950564 0.185701 -0.248884
vn 0.950564 0.185701 -0.248884
vn 0.950564 0.185701 -0.248884
vn 0.950564 0.185701 -0.248884
vn 0.950564 0.185701 -0.248884
vn 0.950564 0.185701 -0.248884
vn -0.992638 -0.048952 -0.110783
vn -0.992638 -0.048952 -0.110783
vn -0.992638 -0.048952 -0.110783
vn -0.992638 -0.048952 -0.110783
vn -0.992638 -0.048952 -0.110783
vn -0.992638 -0.048952 -0.110783
vn -0.992638 -0.048952 -0.110783
vn -0.992638 -0.048952 -0.110783
vn -0.477040 -0.021266 0.878625
vn -0.477040 -0.021266 0.878625
vn -0.477040 -0.021266 0.878625
vn -0.477040 -0.021266 0.878625
vn -0.477040 -0.021266 0.878625
vn -0.477040 -0.021266 0.878625
vn -0.477040 -0.021266 0.878625
vn -0.404853 0.004721 -0.914370
vn -0.404853 0.004721 -0.914370
vn -0.404853 0.004721 -0.914370
vn -0.404853 0.004721 -0.914370
vn -0.404853 0.004721 -0.914370
vn -0.255664 -0.966766 0.000000
vn -0.255664 -0.966766 0.000000
vn -0.255664 -0.966766 0.000000
vn -0.255664 -0.966766 0.000000
vn 0.997894 0.047130 0.044576
vn 0.997894 0.047130 0.044576
vn 0.997894 0.047130 0.044576
vn 0.997894 0.047130 0.044576
vn 0.997894 0.047130 0.044576
vn 0.997894 0.047130 0.044576
vn 0.491748 0.019470 0.870520
vn 0.491748 0.019470 0.870520
vn 0.491748 0.019470 0.870520
vn 0.491748 0.019470 0.870520
vn -0.255664 -0.966766 0.000000
vn -0.255664 -0.966766 0.000000
vn -0.255664 -0.966766 0.000000
s off
g polySurface18
usemtl initialShadingGroup
f 18/1/1 7/2/2 17/3/3
f 4/19/4 3/20/5 2/21/6
s 1
f 15/43/7 14/44/8 16/5/9
f 16/5/9 14/44/8 13/6/10
f 12/45/11 11/15/12 14/44/8
f 14/44/8 11/15/12 13/6/10
s 2
f 29/30/13 28/9/14 30/31/15
f 27/18/16 26/34/17 25/8/18
f 28/9/14 25/8/18 30/31/15
f 26/34/17 30/31/15 25/8/18
s 4
f 16/5/19 19/4/20 15/43/21
f 15/43/21 19/4/20 23/46/22
f 24/12/23 23/46/22 19/4/20
s 5
f 4/19/24 8/24/25 3/20/26
f 3/20/26 8/24/25 20/23/27
f 22/22/28 20/23/27 8/24/25
s 6
f 13/6/29 6/7/30 16/5/31
f 6/7/30 7/2/32 16/5/31
f 19/4/33 16/5/31 18/1/34
f 7/2/32 18/1/34 16/5/31
s 7
f 1/10/35 25/8/36 6/7/37
f 28/9/38 17/3/39 25/8/36
f 17/3/39 7/2/40 25/8/36
f 25/8/36 7/2/40 6/7/37
s 9
f 18/1/41 17/3/42 19/4/43
f 17/3/42 28/9/44 19/4/43
f 28/9/44 29/11/45 19/4/43
f 29/11/45 24/12/46 19/4/43
s off
f 26/34/47 27/18/48 10/17/49 9/35/50
s 10
f 14/44/51 15/43/52 8/48/53
f 23/46/54 22/47/55 15/43/52
f 15/43/52 22/47/55 8/48/53
s 11
f 29/30/56 30/31/57 24/33/58
f 24/33/58 30/31/57 23/32/59
f 23/32/59 30/31/57 22/22/60
f 21/28/61 20/23/62 30/31/57
f 30/31/57 20/23/62 22/22/60
s 12
f 30/31/63 26/34/64 21/28/65
f 5/29/66 21/28/65 9/35/67
f 21/28/65 26/34/64 9/35/67
s 13
f 25/8/68 1/10/69 27/18/70
f 27/18/70 1/10/69 10/17/71
f 10/17/71 1/10/69 36/16/72
f 37/14/73 36/16/72 1/10/69
s 14
f 32/25/74 31/26/75 5/29/76
f 35/27/77 2/21/78 31/26/75
f 20/23/79 21/28/80 3/20/81
f 21/28/80 5/29/76 3/20/81
f 3/20/81 5/29/76 2/21/78
f 31/26/75 2/21/78 5/29/76
s 16
f 8/48/82 4/51/83 14/44/84
f 4/51/83 2/52/85 14/44/84
f 14/44/84 2/52/85 12/45/86
f 2/52/85 35/49/87 12/45/86
f 35/49/87 34/50/88 12/45/86
s 17
f 36/16/89 32/25/90 10/17/91
f 9/35/92 10/17/91 5/29/93
f 32/25/90 5/29/93 10/17/91
s 18
f 32/36/94 37/41/95 35/38/96 31/37/97
s 19
f 6/7/98 13/6/99 1/10/100
f 13/6/99 11/15/101 1/10/100
f 11/15/101 33/13/102 1/10/100
f 33/13/102 37/14/103 1/10/100
s 20
f 34/50/104 33/13/105 12/45/106
f 12/45/106 33/13/105 11/15/107
s 18
f 32/36/94 36/42/108 37/41/95
f 37/41/95 33/40/109 34/39/110 35/38/96
